<svg xmlns="http://www.w3.org/2000/svg" viewBox="0 0 120 120"><defs><radialGradient id="bg" cx=".3" cy=".25" r="1"><stop offset="0" stop-color="#2A1B5E"/><stop offset=".6" stop-color="#0B0A24"/><stop offset="1" stop-color="#05050F"/></radialGradient><linearGradient id="g" x1="0" y1="0" x2="1" y2="1"><stop offset="0" stop-color="#7CF3FF"/><stop offset=".5" stop-color="#8B5CFF"/><stop offset="1" stop-color="#FF4FD8"/></linearGradient><filter id="glow" x="-50%" y="-50%" width="200%" height="200%"><feGaussianBlur stdDeviation="2.5" result="b"/><feMerge><feMergeNode in="b"/><feMergeNode in="SourceGraphic"/></feMerge></filter></defs><rect width="120" height="120" rx="28" fill="url(#bg)"/><g fill="#fff"><circle cx="18" cy="22" r="1.2"/><circle cx="102" cy="16" r="1"/><circle cx="106" cy="96" r="1.4"/><circle cx="14" cy="90" r=".9"/><circle cx="86" cy="108" r=".8"/><circle cx="28" cy="108" r="1"/></g><g filter="url(#glow)"><path d="M46,42 V34 a14,14 0 0 1 28,0 V42" fill="none" stroke="url(#g)" stroke-width="6" stroke-linecap="round"/><path fill-rule="evenodd" fill="url(#g)" d="M30,42 H90 L95,96 a6,6 0 0 1 -6,6 H31 a6,6 0 0 1 -6,-6 Z M44,54 V74 a16,16 0 0 0 32,0 V54 H66 V74 a6,6 0 0 1 -12,0 V54 Z"/></g><circle cx="60" cy="60" r="1.3" fill="#fff"/></svg>
