<svg xmlns="http://www.w3.org/2000/svg" viewBox="0 0 620 440" width="620" height="440" role="img" aria-label="Веранда">
  <defs>
    <linearGradient id="gb3" x1="0" y1="0" x2="1" y2="1"><stop offset="0" stop-color="#233021"/><stop offset="1" stop-color="#4F6E3A"/></linearGradient>
    <radialGradient id="gg3" cx="50%" cy="30%" r="65%"><stop offset="0" stop-color="#F0C878" stop-opacity=".22"/><stop offset="1" stop-color="#F0C878" stop-opacity="0"/></radialGradient>
    <filter id="gn3"><feTurbulence type="fractalNoise" baseFrequency="0.8" numOctaves="3"/><feColorMatrix type="saturate" values="0"/></filter>
  </defs>
  <rect width="620" height="440" fill="url(#gb3)"/>
  <rect width="620" height="440" fill="url(#gg3)"/>
  
      <g fill="none" stroke="#DDEAC0" stroke-width="2.5" opacity=".6">
        <path d="M120 400V220a70 70 0 0 1 140 0v180"/><path d="M360 400V220a70 70 0 0 1 140 0v180"/>
        <path d="M80 400h460"/>
      </g>
      <g fill="#8FA36A" opacity=".55">
        <circle cx="150" cy="150" r="34"/><circle cx="200" cy="126" r="26"/><circle cx="440" cy="140" r="30"/><circle cx="486" cy="164" r="22"/>
      </g>
      <rect x="230" y="330" width="160" height="10" rx="5" fill="#C9A26B" opacity=".6"/>
      <path d="M262 340v60M358 340v60" stroke="#C9A26B" stroke-width="6" stroke-linecap="round" opacity=".5"/>
  <rect width="620" height="440" filter="url(#gn3)" opacity=".07"/>
</svg>